# xmcd
#
# Track frame offsets: 
#        150
#        15491
#        32396
#        47351
#        63795
#        79205
#        96039
#        110757
#        128095
#        137145
#        148519
#        162024
#
# Disc length: 2386 seconds
#
# Revision: 0
# Processed by: cddbd v1.5.2PL0 Copyright (c) Steve Scherf et al.
# Submitted via: ExactAudioCopy v0.95b4
#
DISCID=8f09500c
DTITLE=Bubba and The Bottom Feeders - Still at the Bottom
DYEAR=1900
DGENRE=Ethnic
TTITLE0=Taken Again
TTITLE1=Trailer Park Woman
TTITLE2=Let Me Go Away
TTITLE3=Put Another Log on the Fire
TTITLE4=Pour Me Another Tequila
TTITLE5=My Willow
TTITLE6=Long Tall Texan
TTITLE7=Jesus' Brother Bob
TTITLE8=Y Don't We Get Drunk
TTITLE9=Asshole Song
TTITLE10=Get Your Ass Outa Here
TTITLE11=I Wanna Drink and Drive
EXTD=
EXTT0=
EXTT1=
EXTT2=
EXTT3=
EXTT4=
EXTT5=
EXTT6=
EXTT7=
EXTT8=
EXTT9=
EXTT10=
EXTT11=
PLAYORDER=
